# xmcd
#
# Track frame offsets: 
#        150
#        20037
#        39768
#        53510
#        75202
#        100443
#        114361
#        141503
#        161625
#        181952
#        205217
#        231383
#
# Disc length: 3403 seconds
#
# Revision: 1
# Processed by: cddbd v1.5.2PL0 Copyright (c) Steve Scherf et al.
# Submitted via: ExactAudioCopy v1.0b3
#
DISCID=970d490c
DTITLE=Various Artist - Smooth Saxophone 
DYEAR=2013
DGENRE=Jazz
TTITLE0=Illinois Jacquet and His Orchestra - Imagination (Album Version)
TTITLE1=Paul Desmond - Nuages
TTITLE2=Coleman Hawkins and His Orchestra - Body and Soul (1996 Remastered
TTITLE2=)
TTITLE3=Charles Mingus Jazz Workshop - Goodbye Pork Pie Hat
TTITLE4=Gerry Mulligan - Lonely Town
TTITLE5=Coleman Hawkins and His Orchestra - How Strange (1995 Remastered
TTITLE5=)
TTITLE6=Sonny Rollins - My One and Only Love
TTITLE7=Mark Wyand - Love Me Tender
TTITLE8=Buddy Tate and Marlowe Morris Quintet - I Loves You, Porgy
TTITLE9=Sonny Rollins - Where Are You? (Remastered 1996)
TTITLE10=Lou Donaldson - Danny Boy
TTITLE11=Bob Brookmeyer - Misty
EXTD=YEAR: 2013
EXTT0=
EXTT1=
EXTT2=
EXTT3=
EXTT4=
EXTT5=
EXTT6=
EXTT7=
EXTT8=
EXTT9=
EXTT10=
EXTT11=
PLAYORDER=
